<svg width="576" height="370" viewBox="0 0 576 370" fill="none" xmlns="http://www.w3.org/2000/svg">
<g clip-path="url(#clip0_501_364)">
<path d="M419.696 230.529L543.88 134.932C555.059 126.327 571.25 134.296 571.25 148.403L571.25 339.597C571.25 353.704 555.059 361.673 543.88 353.068L419.696 257.471C410.856 250.666 410.856 237.334 419.696 230.529Z" fill="black" stroke="white" stroke-width="10"/>
<rect x="118" y="124" width="348" height="241" rx="52" fill="black" stroke="white" stroke-width="10"/>
<path d="M348.544 231.858L281.557 179.895C271.044 171.74 255.75 179.233 255.75 192.537L255.75 296.463C255.75 309.767 271.044 317.26 281.557 309.105L348.544 257.142C356.802 250.737 356.802 238.263 348.544 231.858Z" fill="#FF00B8" stroke="white" stroke-width="10"/>
<path d="M125.462 158.132L19.2953 169.572C6.06707 170.997 0.256351 187.006 9.49041 196.584L100.338 290.822C109.572 300.4 125.783 295.18 127.692 282.012L143.011 176.335C144.51 165.993 135.853 157.012 125.462 158.132Z" fill="#FF00B8" stroke="white" stroke-width="10"/>
<path d="M160.675 124.186L175.994 18.5089C177.903 5.34172 194.114 0.12103 203.348 9.6996L294.195 103.937C303.43 113.515 297.619 129.524 284.391 130.949L178.224 142.389C167.833 143.509 159.176 134.529 160.675 124.186Z" fill="#FF00B8" stroke="white" stroke-width="10"/>
<circle cx="152.254" cy="149.864" r="46.9706" transform="rotate(-43.9509 152.254 149.864)" fill="#FF00B8" stroke="white" stroke-width="10"/>
</g>
<defs>
<clipPath id="clip0_501_364">
<rect width="576" height="370" fill="white"/>
</clipPath>
</defs>
</svg>
